PathFileType	4	(X/Y/Z)	/Users/itak/Documents/Research/Walk-IL/dataset/trc/00443_00167.trc
DataRate	CameraRate	NumFrames	NumMarkers	Units	OrigDataRate	OrigDataStartFrame	OrigNumFrames
100.000000	100.000000	4	54	mm	100.000000	61	491
Frame#	Time	RPSI			LPSI			L3			STRN			T10			C7			CLAV			RBAK			LBAK			LSHO			LUPA			LAEL			LAOL			LWTS			LWPS			LFRA			LIFD			LHPS			RSHO			RUPA			RAEL			RAOL			RWTS			RWPS			RFRA			RIFD			RHTS			RHPS			RBHD			LFHD			RFHD			LBHD			LHIP			RHIP			RASI			LASI			LKNE			LTHI			LANK			LTIP			LTOE			LMT1			LMT5			LHEE			RKNE			RTHI			RANK			RTIP			RTOE			RMT1			RMT5			RHEE			LHTS			*53			
		X1	Y1	Z1	X2	Y2	Z2	X3	Y3	Z3	X4	Y4	Z4	X5	Y5	Z5	X6	Y6	Z6	X7	Y7	Z7	X8	Y8	Z8	X9	Y9	Z9	X10	Y10	Z10	X11	Y11	Z11	X12	Y12	Z12	X13	Y13	Z13	X14	Y14	Z14	X15	Y15	Z15	X16	Y16	Z16	X17	Y17	Z17	X18	Y18	Z18	X19	Y19	Z19	X20	Y20	Z20	X21	Y21	Z21	X22	Y22	Z22	X23	Y23	Z23	X24	Y24	Z24	X25	Y25	Z25	X26	Y26	Z26	X27	Y27	Z27	X28	Y28	Z28	X29	Y29	Z29	X30	Y30	Z30	X31	Y31	Z31	X32	Y32	Z32	X33	Y33	Z33	X34	Y34	Z34	X35	Y35	Z35	X36	Y36	Z36	X37	Y37	Z37	X38	Y38	Z38	X39	Y39	Z39	X40	Y40	Z40	X41	Y41	Z41	X42	Y42	Z42	X43	Y43	Z43	X44	Y44	Z44	X45	Y45	Z45	X46	Y46	Z46	X47	Y47	Z47	X48	Y48	Z48	X49	Y49	Z49	X50	Y50	Z50	X51	Y51	Z51	X52	Y52	Z52	X53	Y53	Z53	X54	Y54	Z54	

62	0.61	-1176.003784179688	973.429931640625	-447.3233947753906	-1097.160888671875	968.6497192382812	-564.4384765625	-1137.009887695312	1056.5830078125	-491.1479187011719	-906.2975463867188	1258.493774414062	-365.5174255371094	-1155.472045898438	1180.169311523438	-508.2072143554688	-1111.432495117188	1450.522216796875	-468.7404174804688	-939.0587768554688	1371.732299804688	-388.7129516601562	-1208.980224609375	1327.689331054688	-412.0807189941406	-1087.491821289062	1402.50244140625	-571.6320190429688	-955.6268310546875	1425.997924804688	-587.4815673828125	-904.6309814453125	1306.053588867188	-673.1854858398438	-857.3104858398438	1087.802856445312	-672.8821411132812	-959.9569702148438	1071.135131835938	-671.1448974609375	-820.1032104492188	889.920166015625	-576.628662109375	-818.3536376953125	871.2348022460938	-648.46240234375	-832.8706665039062	1001.203369140625	-662.5518188476562	-816.8582153320312	720.8214111328125	-568.8043823242188	-814.8783569335938	790.0777587890625	-638.7387084960938	-1125.372802734375	1420.815673828125	-291.2152099609375	-1171.568603515625	1357.941040039062	-228.6603546142578	-1168.455322265625	1069.5302734375	-170.6351165771484	-1209.31884765625	1052.453369140625	-221.9701232910156	-1051.517456054688	872.8438110351562	-192.9277038574219	-1129.043212890625	853.4410400390625	-154.7099456787109	-1164.769653320312	1010.800659179688	-161.3793640136719	-1044.933227539062	713.8081665039062	-183.9139404296875	-1035.460205078125	773.7930908203125	-176.8959045410156	-1107.286499023438	767.691650390625	-152.3919525146484	-1100.350830078125	1645.065795898438	-362.8414611816406	-903.0247192382812	1677.349853515625	-421.7079467773438	-974.5921630859375	1675.1142578125	-311.6410217285156	-1016.667541503906	1650.296508789062	-520.2249145507812	-924.24365234375	858.50830078125	-590.005126953125	-1158.154663085938	864.0533447265625	-271.330322265625	-1033.6611328125	903.0363159179688	-259.9242553710938	-882.91162109375	894.8782348632812	-470.3861083984375	-970.5106811523438	437.9916687011719	-559.4381713867188	-926.6478881835938	587.499755859375	-564.8005981445312	-1047.571533203125	35.27341461181641	-586.1189575195312	-978.993408203125	288.4449768066406	-570.2767944335938	-898.0338134765625	44.80293273925781	-405.1743774414062	-976.7327880859375	49.42669677734375	-421.2175598144531	-915.1670532226562	45.58213806152344	-516.8426513671875	-1120.756103515625	40.76552200317383	-575.19580078125	-1133.766845703125	465.0836791992188	-301.5860595703125	-1129.090454101562	726.3660278320312	-244.5346374511719	-1163.75439453125	41.93418502807617	-341.754638671875	-1144.8359375	320.5660095214844	-298.8747863769531	-956.4639892578125	47.91636657714844	-271.80908203125	-992.6881103515625	54.35141754150391	-334.1401062011719	-1063.258666992188	48.20331192016602	-251.0370788574219	-1196.951416015625	33.2376708984375	-415.2522583007812	-803.525634765625	799.9518432617188	-568.8489379882812	nan	nan	nan	
63	0.62	-1175.846801757812	973.481201171875	-447.2754821777344	-1097.00537109375	968.6942138671875	-564.3064575195312	-1136.875366210938	1056.607055664062	-491.0753784179688	-906.0924072265625	1258.453125	-365.4725952148438	-1155.287841796875	1180.197998046875	-508.1195678710938	-1111.222534179688	1450.524536132812	-468.6012573242188	-938.8357543945312	1371.6875	-388.6291198730469	-1208.762329101562	1327.728393554688	-411.9881896972656	-1087.247924804688	1402.490356445312	-571.527099609375	-955.4443969726562	1425.950439453125	-587.4140625	-904.3658447265625	1306.0478515625	-673.1126708984375	-857.0454711914062	1087.822387695312	-672.8331298828125	-959.697998046875	1071.215454101562	-671.1412353515625	-819.7797241210938	889.9420776367188	-576.654541015625	-817.9425659179688	871.284423828125	-648.4609375	-832.557373046875	1001.191955566406	-662.5139770507812	-816.2838745117188	720.8347778320312	-568.8049926757812	-814.4228515625	790.1458740234375	-638.818115234375	-1125.130981445312	1420.775512695312	-291.1085510253906	-1171.30078125	1357.905517578125	-228.6036834716797	-1168.1767578125	1069.485595703125	-170.6243133544922	-1209.05419921875	1052.4072265625	-221.9386901855469	-1051.20361328125	872.8294067382812	-192.9691314697266	-1128.715576171875	853.4034423828125	-154.7435455322266	-1164.481811523438	1010.756286621094	-161.35888671875	-1044.597900390625	713.8091430664062	-183.9356994628906	-1035.105712890625	773.7657470703125	-176.8981018066406	-1106.97314453125	767.6739501953125	-152.3595123291016	-1100.026977539062	1645.0703125	-362.7396545410156	-902.7243041992188	1677.315063476562	-421.6169128417969	-974.2357177734375	1675.11181640625	-311.5780639648438	-1016.416259765625	1650.311157226562	-520.1943969726562	-924.155029296875	858.471435546875	-589.9755859375	-1157.9736328125	864.0660400390625	-271.2638244628906	-1033.556762695312	902.9544067382812	-259.8406372070312	-882.812255859375	894.856201171875	-470.3764038085938	-970.50537109375	437.9894104003906	-559.4252319335938	-926.5646362304688	587.4853515625	-564.7380981445312	-1047.579223632812	35.2857780456543	-586.1100463867188	-978.9291381835938	288.460205078125	-570.2378540039062	-898.0228271484375	44.77932357788086	-405.1405029296875	-976.7337646484375	49.43317794799805	-421.1967468261719	-915.1555786132812	45.57502365112305	-516.8440551757812	-1120.745971679688	40.78205108642578	-575.192626953125	-1133.736572265625	465.0833435058594	-301.5784301757812	-1128.967041015625	726.3593139648438	-244.4727478027344	-1163.752685546875	41.93706512451172	-341.753173828125	-1144.81640625	320.5747375488281	-298.866455078125	-956.4727783203125	47.91707611083984	-271.7973327636719	-992.6896362304688	54.35494995117188	-334.1370239257812	-1063.2578125	48.19929504394531	-251.0373992919922	-1196.947998046875	33.23885345458984	-415.2561645507812	-803.1453857421875	799.9577026367188	-568.8103637695312	nan	nan	nan	
64	0.63	-1175.696411132812	973.5352783203125	-447.2276000976562	-1096.867065429688	968.7423706054688	-564.1826171875	-1136.759399414062	1056.630981445312	-490.9805297851562	-905.8902587890625	1258.411499023438	-365.4254760742188	-1155.109252929688	1180.222534179688	-508.0320434570312	-1111.015747070312	1450.527709960938	-468.4620666503906	-938.60693359375	1371.638916015625	-388.5396728515625	-1208.543090820312	1327.773803710938	-411.8878784179688	-1087.034301757812	1402.4892578125	-571.412841796875	-955.2625732421875	1425.904907226562	-587.3407592773438	-904.1036987304688	1306.045654296875	-673.03955078125	-856.78076171875	1087.843505859375	-672.7847290039062	-959.4270629882812	1071.296752929688	-671.1364135742188	-819.4380493164062	889.9805908203125	-576.6901245117188	-817.5389404296875	871.3442993164062	-648.48291015625	-832.2341918945312	1001.193725585938	-662.4780883789062	-815.71484375	720.8521118164062	-568.8342895507812	-813.965576171875	790.2421875	-638.9130859375	-1124.888061523438	1420.733764648438	-290.9967956542969	-1171.040405273438	1357.869140625	-228.5394897460938	-1167.899536132812	1069.444458007812	-170.6009063720703	-1208.79150390625	1052.361206054688	-221.9005126953125	-1050.886352539062	872.8180541992188	-192.9981994628906	-1128.3857421875	853.374267578125	-154.7572326660156	-1164.192504882812	1010.713317871094	-161.3311309814453	-1044.2353515625	713.8056640625	-183.9606323242188	-1034.7392578125	773.7372436523438	-176.8877410888672	-1106.64892578125	767.6524047851562	-152.3208160400391	-1099.645629882812	1645.064208984375	-362.5989074707031	-902.4462890625	1677.278564453125	-421.5261535644531	-973.8649291992188	1675.109741210938	-311.5170593261719	-1016.166442871094	1650.324584960938	-520.1613159179688	-924.0829467773438	858.4463500976562	-589.9549560546875	-1157.801879882812	864.0765380859375	-271.19482421875	-1033.483764648438	902.8666381835938	-259.7735900878906	-882.7201538085938	894.8355712890625	-470.3731384277344	-970.504150390625	437.987060546875	-559.4093017578125	-926.4761352539062	587.4686889648438	-564.6716918945312	-1047.587280273438	35.29666137695312	-586.10107421875	-978.8729248046875	288.4752502441406	-570.2012329101562	-898.0122680664062	44.75810623168945	-405.1112976074219	-976.730224609375	49.43680191040039	-421.1796264648438	-915.1461791992188	45.56936264038086	-516.8458251953125	-1120.739135742188	40.79931259155273	-575.1885375976562	-1133.714111328125	465.0840759277344	-301.5747985839844	-1128.854370117188	726.3484497070312	-244.4121856689453	-1163.749389648438	41.93959426879883	-341.7514343261719	-1144.803466796875	320.5830078125	-298.8580627441406	-956.4823608398438	47.91821670532227	-271.7855529785156	-992.6917114257812	54.35771179199219	-334.1335144042969	-1063.257080078125	48.19592666625977	-251.0370025634766	-1196.9462890625	33.23929595947266	-415.2596740722656	-802.764404296875	799.9738159179688	-568.79345703125	nan	nan	nan	
65	0.64	-1175.5537109375	973.5895385742188	-447.1774291992188	-1096.74560546875	968.7857055664062	-564.0711059570312	-1136.65576171875	1056.65380859375	-490.87060546875	-905.6893310546875	1258.36767578125	-365.3761291503906	-1154.937622070312	1180.241943359375	-507.9451599121094	-1110.808349609375	1450.530517578125	-468.3284301757812	-938.376708984375	1371.585327148438	-388.4464111328125	-1208.323608398438	1327.822509765625	-411.7792663574219	-1086.84765625	1402.49755859375	-571.2914428710938	-955.0800170898438	1425.861694335938	-587.26220703125	-903.8513793945312	1306.046508789062	-672.96728515625	-856.5154418945312	1087.8642578125	-672.7376098632812	-959.1419677734375	1071.370971679688	-671.130126953125	-819.0767211914062	890.0313110351562	-576.7332153320312	-817.1516723632812	871.4120483398438	-648.5253295898438	-831.9068603515625	1001.212646484375	-662.4467163085938	-815.1656494140625	720.8723754882812	-568.8888549804688	-813.5150146484375	790.3582763671875	-639.0147094726562	-1124.643432617188	1420.691650390625	-290.8825988769531	-1170.786499023438	1357.831787109375	-228.4666137695312	-1167.625	1069.406127929688	-170.5624084472656	-1208.532836914062	1052.315673828125	-221.8545227050781	-1050.56640625	872.8082275390625	-193.0177612304688	-1128.053466796875	853.3514404296875	-154.7526397705078	-1163.903198242188	1010.671569824219	-161.2947235107422	-1043.849365234375	713.7969360351562	-183.9889678955078	-1034.369995117188	773.7100219726562	-176.8653564453125	-1106.313232421875	767.6246337890625	-152.2830810546875	-1099.215942382812	1645.046020507812	-362.4252014160156	-902.189208984375	1677.23974609375	-421.4372253417969	-973.4827880859375	1675.108642578125	-311.4560852050781	-1015.907592773438	1650.333618164062	-520.1195068359375	-924.0239868164062	858.4306030273438	-589.94189453125	-1157.644409179688	864.0853881835938	-271.1240234375	-1033.451416015625	902.7769775390625	-259.7312622070312	-882.63623046875	894.8157958984375	-470.3760986328125	-970.506103515625	437.9852905273438	-559.3892211914062	-926.3870239257812	587.4494018554688	-564.6062622070312	-1047.59521484375	35.3050537109375	-586.091796875	-978.8255004882812	288.4893798828125	-570.1671752929688	-898.0027465820312	44.73908615112305	-405.0872802734375	-976.7238159179688	49.43930435180664	-421.1661071777344	-915.1392211914062	45.56488037109375	-516.8480834960938	-1120.735961914062	40.8171272277832	-575.18310546875	-1133.69921875	465.0860900878906	-301.573486328125	-1128.748413085938	726.3321533203125	-244.3597717285156	-1163.745239257812	41.94079971313477	-341.7496643066406	-1144.796630859375	320.590087890625	-298.8489685058594	-956.4937744140625	47.91999435424805	-271.7721252441406	-992.6943359375	54.35995864868164	-334.1298217773438	-1063.256225585938	48.19347381591797	-251.0356597900391	-1196.946411132812	33.23946762084961	-415.2624206542969	-802.3825073242188	800.0016479492188	-568.8010864257812	nan	nan	nan	
